# xmcd
#
# Track frame offsets:
#	150
#	15121
#	36712
#	52378
#	74905
#	94409
#	106911
#	126288
#	145608
#	160935
#	178817
#	195759
#	210122
#	224828
#	245253
#	268497
#
# Disc length: 3842 seconds
#
# Revision: 0
# Processed by: cddbd v1.5.1PL2 Copyright (c) Steve Scherf et al.
# Submitted via: audiograbber 1.83.01
#
DISCID=f80f0010
DTITLE=Various Artist - Blues 
DYEAR=2006
DGENRE=Blues
TTITLE0=Paulo Calarezzo - Seculo XX
TTITLE1=Bolor Blues Band - Viajando Na Sua
TTITLE2=Bitten Blues - Alice´s Blues
TTITLE3=Rick Boys Slim - Para Uma Noite de Blues
TTITLE4=Manifesto Blues - Era FHC
TTITLE5=Nana Maran - Beliscando Azulejos
TTITLE6=Curacau Blues - Vicios
TTITLE7=Bitten Blues - Alma Negra
TTITLE8=Andy Rodrigues - Se Ela Me Visse Agora
TTITLE9=Double Blues Band - Buggy Blues
TTITLE10=Starving Bluesmen Quartet - Midnight Special
TTITLE11=Marzio Lenzi - Raze Woman
TTITLE12=Double Blues Band - School´s Out
TTITLE13=Marzio Lenzi - She´s My Baby
TTITLE14=Sunrise Blues Band - Blues Para Esquecer
TTITLE15=Bolor Blues Band - Siga o Caminho
EXTD=
EXTT0=
EXTT1=
EXTT2=
EXTT3=
EXTT4=
EXTT5=
EXTT6=
EXTT7=
EXTT8=
EXTT9=
EXTT10=
EXTT11=
EXTT12=
EXTT13=
EXTT14=
EXTT15=
PLAYORDER=
